<svg width="24" height="23" viewBox="0 0 24 23" fill="none" xmlns="http://www.w3.org/2000/svg">
<path fill-rule="evenodd" clip-rule="evenodd" d="M6.01483 3.34505C5.34228 3.34505 4.69727 3.61222 4.22171 4.08779C3.74614 4.56336 3.47897 5.20836 3.47897 5.88091V13.4885C3.47897 14.161 3.74614 14.806 4.22171 15.2816C4.69727 15.7572 5.34228 16.0243 6.01483 16.0243H8.55069C8.88697 16.0243 9.20947 16.1579 9.44725 16.3957L12.3545 19.3029L15.2617 16.3957C15.4995 16.1579 15.822 16.0243 16.1583 16.0243H18.6941C19.3667 16.0243 20.0117 15.7572 20.4872 15.2816C20.9628 14.806 21.23 14.161 21.23 13.4885V5.88091C21.23 5.20836 20.9628 4.56336 20.4872 4.08779C20.0117 3.61222 19.3667 3.34505 18.6941 3.34505H6.01483ZM2.42859 2.29467C3.37972 1.34354 4.66973 0.809196 6.01483 0.809196H18.6941C20.0392 0.809196 21.3292 1.34354 22.2804 2.29467C23.2315 3.2458 23.7658 4.53581 23.7658 5.88091V13.4885C23.7658 14.8336 23.2315 16.1236 22.2804 17.0747C21.3292 18.0259 20.0392 18.5602 18.6941 18.5602H16.6835L13.251 21.9926C12.7559 22.4878 11.9531 22.4878 11.4579 21.9926L8.0255 18.5602H6.01483C4.66973 18.5602 3.37972 18.0259 2.42859 17.0747C1.47746 16.1236 0.943115 14.8336 0.943115 13.4885V5.88091C0.943115 4.53581 1.47746 3.2458 2.42859 2.29467ZM6.01483 7.14884C6.01483 6.44858 6.5825 5.88091 7.28276 5.88091H17.4262C18.1265 5.88091 18.6941 6.44858 18.6941 7.14884C18.6941 7.8491 18.1265 8.41677 17.4262 8.41677H7.28276C6.5825 8.41677 6.01483 7.8491 6.01483 7.14884ZM6.01483 12.2206C6.01483 11.5203 6.5825 10.9526 7.28276 10.9526H14.8903C15.5906 10.9526 16.1583 11.5203 16.1583 12.2206C16.1583 12.9208 15.5906 13.4885 14.8903 13.4885H7.28276C6.5825 13.4885 6.01483 12.9208 6.01483 12.2206Z" fill="#688193"/>
<path fill-rule="evenodd" clip-rule="evenodd" d="M6.01483 3.34505C5.34228 3.34505 4.69727 3.61222 4.22171 4.08779C3.74614 4.56336 3.47897 5.20836 3.47897 5.88091V13.4885C3.47897 14.161 3.74614 14.806 4.22171 15.2816C4.69727 15.7572 5.34228 16.0243 6.01483 16.0243H8.55069C8.88697 16.0243 9.20947 16.1579 9.44725 16.3957L12.3545 19.3029L15.2617 16.3957C15.4995 16.1579 15.822 16.0243 16.1583 16.0243H18.6941C19.3667 16.0243 20.0117 15.7572 20.4872 15.2816C20.9628 14.806 21.23 14.161 21.23 13.4885V5.88091C21.23 5.20836 20.9628 4.56336 20.4872 4.08779C20.0117 3.61222 19.3667 3.34505 18.6941 3.34505H6.01483ZM2.42859 2.29467C3.37972 1.34354 4.66973 0.809196 6.01483 0.809196H18.6941C20.0392 0.809196 21.3292 1.34354 22.2804 2.29467C23.2315 3.2458 23.7658 4.53581 23.7658 5.88091V13.4885C23.7658 14.8336 23.2315 16.1236 22.2804 17.0747C21.3292 18.0259 20.0392 18.5602 18.6941 18.5602H16.6835L13.251 21.9926C12.7559 22.4878 11.9531 22.4878 11.4579 21.9926L8.0255 18.5602H6.01483C4.66973 18.5602 3.37972 18.0259 2.42859 17.0747C1.47746 16.1236 0.943115 14.8336 0.943115 13.4885V5.88091C0.943115 4.53581 1.47746 3.2458 2.42859 2.29467ZM6.01483 7.14884C6.01483 6.44858 6.5825 5.88091 7.28276 5.88091H17.4262C18.1265 5.88091 18.6941 6.44858 18.6941 7.14884C18.6941 7.8491 18.1265 8.41677 17.4262 8.41677H7.28276C6.5825 8.41677 6.01483 7.8491 6.01483 7.14884ZM6.01483 12.2206C6.01483 11.5203 6.5825 10.9526 7.28276 10.9526H14.8903C15.5906 10.9526 16.1583 11.5203 16.1583 12.2206C16.1583 12.9208 15.5906 13.4885 14.8903 13.4885H7.28276C6.5825 13.4885 6.01483 12.9208 6.01483 12.2206Z" fill="black" fill-opacity="0.2"/>
</svg>
