<svg width="752" height="213" viewBox="0 0 752 213" fill="none" xmlns="http://www.w3.org/2000/svg">
<mask id="path-1-outside-1_11_6561" maskUnits="userSpaceOnUse" x="0" y="-1" width="217" height="182" fill="black">
<rect fill="white" y="-1" width="217" height="182"/>
<path d="M175.703 40.5243C176.476 40.6708 177.305 40.4111 177.857 39.7657L196.807 17.6269C197.628 16.6664 197.523 15.2203 196.57 14.394C195.616 13.5648 194.18 13.6791 193.357 14.6391L174.407 36.7803C173.586 37.7407 173.691 39.1869 174.644 40.0107C174.958 40.2839 175.323 40.4522 175.703 40.5243ZM182.691 54.4869C181.701 54.2993 180.925 53.4632 180.847 52.4061C180.755 51.1455 181.696 50.045 182.952 49.9475L211.881 47.741C213.14 47.6415 214.225 48.5921 214.319 49.8532C214.411 51.1163 213.468 52.2163 212.215 52.3118L183.286 54.5184C183.081 54.533 182.881 54.523 182.691 54.4869ZM179.725 65.3601L201.686 84.3783C202.639 85.2045 202.744 86.6507 201.923 87.6112C201.369 88.2561 200.542 88.5163 199.769 88.3698C199.388 88.2977 199.024 88.1294 198.709 87.8562L176.75 68.8385C175.798 68.0147 175.69 66.5681 176.514 65.6056C177.337 64.6481 178.773 64.5339 179.725 65.3601ZM147.049 42.7091C146.671 42.6375 146.301 42.4683 145.989 42.1955L124.03 23.1779C123.078 22.3516 122.973 20.9054 123.794 19.945C124.617 18.985 126.058 18.8741 127.007 19.6999L148.966 38.7201C149.919 39.5439 150.024 40.99 149.203 41.9505C148.651 42.5959 147.822 42.8556 147.049 42.7091ZM161.536 35.6801C161.333 35.6951 161.131 35.6846 160.94 35.6486C159.951 35.461 159.174 34.6249 159.097 33.5678L156.969 4.46642C156.877 3.2033 157.818 2.10286 159.074 2.00782C160.333 1.90342 161.421 2.85698 161.512 4.12009L163.64 33.2215C163.732 34.4821 162.791 35.585 161.536 35.6801ZM2.79019 135.294L52.1124 178.013C52.4165 178.274 52.7842 178.453 53.1742 178.527C53.3668 178.563 53.567 178.573 53.7669 178.558C54.3691 178.512 54.9283 178.226 55.3234 177.767L67.7315 163.271L141.436 146.392C145.034 146.075 148.31 144.382 150.674 141.622C153.077 138.816 154.252 135.238 153.984 131.546C153.426 123.931 146.807 118.206 139.243 118.778L124.401 119.91L169.629 67.0766C174.585 61.2816 173.945 52.5162 168.199 47.5398C162.455 42.5586 153.739 43.2274 148.778 49.0215L130.34 70.5633C129.929 67.2795 128.36 64.1371 125.681 61.814C120.4 57.2434 112.618 57.4309 107.543 61.9833C107.15 58.5146 105.502 55.3726 102.86 53.0819C100.074 50.6699 96.5256 49.4964 92.8535 49.7765C89.7962 50.0105 86.9614 51.2299 84.7136 53.2571C84.3338 49.9157 82.7596 46.7063 80.0364 44.3494C74.2952 39.3789 65.5791 40.035 60.6177 45.8291L24.8438 87.6188C24.6429 87.8528 24.493 88.1244 24.3993 88.4193L15.241 117.24L2.55391 132.061C1.7306 133.021 1.83797 134.468 2.79019 135.294ZM140.594 141.888L67.1173 158.713L19.8472 117.775L28.5956 90.2521L64.065 48.8165C67.3851 44.9409 73.2112 44.4894 77.0597 47.8249C80.9063 51.1574 81.3341 57.0198 78.0154 60.9008C77.9894 60.9315 77.982 60.9707 77.9584 61.0018L69.4769 70.9133C68.6536 71.8734 68.761 73.32 69.7132 74.1462C70.0257 74.4165 70.3928 74.5852 70.7731 74.6573C71.546 74.8038 72.3731 74.5437 72.9271 73.8987L86.1792 58.4137C86.2052 58.3831 86.2127 58.3438 86.2367 58.3102L86.8885 57.549C90.2038 53.6725 96.0337 53.2268 99.8828 56.5599C101.747 58.1717 102.872 60.4213 103.053 62.8913C103.233 65.3558 102.449 67.747 100.846 69.622L100.808 69.6886L86.8667 85.9734C86.0434 86.9334 86.1508 88.38 87.103 89.2063C87.4155 89.4765 87.7821 89.6477 88.1625 89.7198C88.9353 89.8663 89.7624 89.6062 90.3165 88.9612L106.646 69.8825L106.677 69.8273L109.712 66.284C113.03 62.4055 118.858 61.957 122.704 65.292C126.548 68.6216 126.98 74.4795 123.669 78.357L104.254 101.035C103.433 101.996 103.538 103.442 104.49 104.268C104.805 104.539 105.172 104.708 105.55 104.779C106.325 104.926 107.152 104.666 107.704 104.021L152.228 52.0069C155.549 48.1288 161.381 47.6861 165.225 51.0158C169.069 54.3479 169.497 60.2127 166.179 64.0888L117.361 121.121C116.757 121.825 116.637 122.822 117.051 123.648C117.465 124.476 118.331 124.973 119.251 124.899L139.577 123.349C140.397 123.286 141.201 123.334 141.977 123.481C145.973 124.239 149.128 127.621 149.441 131.89C149.622 134.36 148.835 136.756 147.226 138.635C145.621 140.512 143.382 141.651 140.927 141.836C140.815 141.846 140.702 141.865 140.594 141.888ZM7.48974 133.31L17.4131 121.719L63.2855 161.45L53.3622 173.04L7.48974 133.31Z"/>
</mask>
<path d="M175.703 40.5243C176.476 40.6708 177.305 40.4111 177.857 39.7657L196.807 17.6269C197.628 16.6664 197.523 15.2203 196.57 14.394C195.616 13.5648 194.18 13.6791 193.357 14.6391L174.407 36.7803C173.586 37.7407 173.691 39.1869 174.644 40.0107C174.958 40.2839 175.323 40.4522 175.703 40.5243ZM182.691 54.4869C181.701 54.2993 180.925 53.4632 180.847 52.4061C180.755 51.1455 181.696 50.045 182.952 49.9475L211.881 47.741C213.14 47.6415 214.225 48.5921 214.319 49.8532C214.411 51.1163 213.468 52.2163 212.215 52.3118L183.286 54.5184C183.081 54.533 182.881 54.523 182.691 54.4869ZM179.725 65.3601L201.686 84.3783C202.639 85.2045 202.744 86.6507 201.923 87.6112C201.369 88.2561 200.542 88.5163 199.769 88.3698C199.388 88.2977 199.024 88.1294 198.709 87.8562L176.75 68.8385C175.798 68.0147 175.69 66.5681 176.514 65.6056C177.337 64.6481 178.773 64.5339 179.725 65.3601ZM147.049 42.7091C146.671 42.6375 146.301 42.4683 145.989 42.1955L124.03 23.1779C123.078 22.3516 122.973 20.9054 123.794 19.945C124.617 18.985 126.058 18.8741 127.007 19.6999L148.966 38.7201C149.919 39.5439 150.024 40.99 149.203 41.9505C148.651 42.5959 147.822 42.8556 147.049 42.7091ZM161.536 35.6801C161.333 35.6951 161.131 35.6846 160.94 35.6486C159.951 35.461 159.174 34.6249 159.097 33.5678L156.969 4.46642C156.877 3.2033 157.818 2.10286 159.074 2.00782C160.333 1.90342 161.421 2.85698 161.512 4.12009L163.64 33.2215C163.732 34.4821 162.791 35.585 161.536 35.6801ZM2.79019 135.294L52.1124 178.013C52.4165 178.274 52.7842 178.453 53.1742 178.527C53.3668 178.563 53.567 178.573 53.7669 178.558C54.3691 178.512 54.9283 178.226 55.3234 177.767L67.7315 163.271L141.436 146.392C145.034 146.075 148.31 144.382 150.674 141.622C153.077 138.816 154.252 135.238 153.984 131.546C153.426 123.931 146.807 118.206 139.243 118.778L124.401 119.91L169.629 67.0766C174.585 61.2816 173.945 52.5162 168.199 47.5398C162.455 42.5586 153.739 43.2274 148.778 49.0215L130.34 70.5633C129.929 67.2795 128.36 64.1371 125.681 61.814C120.4 57.2434 112.618 57.4309 107.543 61.9833C107.15 58.5146 105.502 55.3726 102.86 53.0819C100.074 50.6699 96.5256 49.4964 92.8535 49.7765C89.7962 50.0105 86.9614 51.2299 84.7136 53.2571C84.3338 49.9157 82.7596 46.7063 80.0364 44.3494C74.2952 39.3789 65.5791 40.035 60.6177 45.8291L24.8438 87.6188C24.6429 87.8528 24.493 88.1244 24.3993 88.4193L15.241 117.24L2.55391 132.061C1.7306 133.021 1.83797 134.468 2.79019 135.294ZM140.594 141.888L67.1173 158.713L19.8472 117.775L28.5956 90.2521L64.065 48.8165C67.3851 44.9409 73.2112 44.4894 77.0597 47.8249C80.9063 51.1574 81.3341 57.0198 78.0154 60.9008C77.9894 60.9315 77.982 60.9707 77.9584 61.0018L69.4769 70.9133C68.6536 71.8734 68.761 73.32 69.7132 74.1462C70.0257 74.4165 70.3928 74.5852 70.7731 74.6573C71.546 74.8038 72.3731 74.5437 72.9271 73.8987L86.1792 58.4137C86.2052 58.3831 86.2127 58.3438 86.2367 58.3102L86.8885 57.549C90.2038 53.6725 96.0337 53.2268 99.8828 56.5599C101.747 58.1717 102.872 60.4213 103.053 62.8913C103.233 65.3558 102.449 67.747 100.846 69.622L100.808 69.6886L86.8667 85.9734C86.0434 86.9334 86.1508 88.38 87.103 89.2063C87.4155 89.4765 87.7821 89.6477 88.1625 89.7198C88.9353 89.8663 89.7624 89.6062 90.3165 88.9612L106.646 69.8825L106.677 69.8273L109.712 66.284C113.03 62.4055 118.858 61.957 122.704 65.292C126.548 68.6216 126.98 74.4795 123.669 78.357L104.254 101.035C103.433 101.996 103.538 103.442 104.49 104.268C104.805 104.539 105.172 104.708 105.55 104.779C106.325 104.926 107.152 104.666 107.704 104.021L152.228 52.0069C155.549 48.1288 161.381 47.6861 165.225 51.0158C169.069 54.3479 169.497 60.2127 166.179 64.0888L117.361 121.121C116.757 121.825 116.637 122.822 117.051 123.648C117.465 124.476 118.331 124.973 119.251 124.899L139.577 123.349C140.397 123.286 141.201 123.334 141.977 123.481C145.973 124.239 149.128 127.621 149.441 131.89C149.622 134.36 148.835 136.756 147.226 138.635C145.621 140.512 143.382 141.651 140.927 141.836C140.815 141.846 140.702 141.865 140.594 141.888ZM7.48974 133.31L17.4131 121.719L63.2855 161.45L53.3622 173.04L7.48974 133.31Z" fill="#B7CDDE"/>
<path d="M175.703 40.5243C176.476 40.6708 177.305 40.4111 177.857 39.7657L196.807 17.6269C197.628 16.6664 197.523 15.2203 196.57 14.394C195.616 13.5648 194.18 13.6791 193.357 14.6391L174.407 36.7803C173.586 37.7407 173.691 39.1869 174.644 40.0107C174.958 40.2839 175.323 40.4522 175.703 40.5243ZM182.691 54.4869C181.701 54.2993 180.925 53.4632 180.847 52.4061C180.755 51.1455 181.696 50.045 182.952 49.9475L211.881 47.741C213.14 47.6415 214.225 48.5921 214.319 49.8532C214.411 51.1163 213.468 52.2163 212.215 52.3118L183.286 54.5184C183.081 54.533 182.881 54.523 182.691 54.4869ZM179.725 65.3601L201.686 84.3783C202.639 85.2045 202.744 86.6507 201.923 87.6112C201.369 88.2561 200.542 88.5163 199.769 88.3698C199.388 88.2977 199.024 88.1294 198.709 87.8562L176.75 68.8385C175.798 68.0147 175.69 66.5681 176.514 65.6056C177.337 64.6481 178.773 64.5339 179.725 65.3601ZM147.049 42.7091C146.671 42.6375 146.301 42.4683 145.989 42.1955L124.03 23.1779C123.078 22.3516 122.973 20.9054 123.794 19.945C124.617 18.985 126.058 18.8741 127.007 19.6999L148.966 38.7201C149.919 39.5439 150.024 40.99 149.203 41.9505C148.651 42.5959 147.822 42.8556 147.049 42.7091ZM161.536 35.6801C161.333 35.6951 161.131 35.6846 160.94 35.6486C159.951 35.461 159.174 34.6249 159.097 33.5678L156.969 4.46642C156.877 3.2033 157.818 2.10286 159.074 2.00782C160.333 1.90342 161.421 2.85698 161.512 4.12009L163.64 33.2215C163.732 34.4821 162.791 35.585 161.536 35.6801ZM2.79019 135.294L52.1124 178.013C52.4165 178.274 52.7842 178.453 53.1742 178.527C53.3668 178.563 53.567 178.573 53.7669 178.558C54.3691 178.512 54.9283 178.226 55.3234 177.767L67.7315 163.271L141.436 146.392C145.034 146.075 148.31 144.382 150.674 141.622C153.077 138.816 154.252 135.238 153.984 131.546C153.426 123.931 146.807 118.206 139.243 118.778L124.401 119.91L169.629 67.0766C174.585 61.2816 173.945 52.5162 168.199 47.5398C162.455 42.5586 153.739 43.2274 148.778 49.0215L130.34 70.5633C129.929 67.2795 128.36 64.1371 125.681 61.814C120.4 57.2434 112.618 57.4309 107.543 61.9833C107.15 58.5146 105.502 55.3726 102.86 53.0819C100.074 50.6699 96.5256 49.4964 92.8535 49.7765C89.7962 50.0105 86.9614 51.2299 84.7136 53.2571C84.3338 49.9157 82.7596 46.7063 80.0364 44.3494C74.2952 39.3789 65.5791 40.035 60.6177 45.8291L24.8438 87.6188C24.6429 87.8528 24.493 88.1244 24.3993 88.4193L15.241 117.24L2.55391 132.061C1.7306 133.021 1.83797 134.468 2.79019 135.294ZM140.594 141.888L67.1173 158.713L19.8472 117.775L28.5956 90.2521L64.065 48.8165C67.3851 44.9409 73.2112 44.4894 77.0597 47.8249C80.9063 51.1574 81.3341 57.0198 78.0154 60.9008C77.9894 60.9315 77.982 60.9707 77.9584 61.0018L69.4769 70.9133C68.6536 71.8734 68.761 73.32 69.7132 74.1462C70.0257 74.4165 70.3928 74.5852 70.7731 74.6573C71.546 74.8038 72.3731 74.5437 72.9271 73.8987L86.1792 58.4137C86.2052 58.3831 86.2127 58.3438 86.2367 58.3102L86.8885 57.549C90.2038 53.6725 96.0337 53.2268 99.8828 56.5599C101.747 58.1717 102.872 60.4213 103.053 62.8913C103.233 65.3558 102.449 67.747 100.846 69.622L100.808 69.6886L86.8667 85.9734C86.0434 86.9334 86.1508 88.38 87.103 89.2063C87.4155 89.4765 87.7821 89.6477 88.1625 89.7198C88.9353 89.8663 89.7624 89.6062 90.3165 88.9612L106.646 69.8825L106.677 69.8273L109.712 66.284C113.03 62.4055 118.858 61.957 122.704 65.292C126.548 68.6216 126.98 74.4795 123.669 78.357L104.254 101.035C103.433 101.996 103.538 103.442 104.49 104.268C104.805 104.539 105.172 104.708 105.55 104.779C106.325 104.926 107.152 104.666 107.704 104.021L152.228 52.0069C155.549 48.1288 161.381 47.6861 165.225 51.0158C169.069 54.3479 169.497 60.2127 166.179 64.0888L117.361 121.121C116.757 121.825 116.637 122.822 117.051 123.648C117.465 124.476 118.331 124.973 119.251 124.899L139.577 123.349C140.397 123.286 141.201 123.334 141.977 123.481C145.973 124.239 149.128 127.621 149.441 131.89C149.622 134.36 148.835 136.756 147.226 138.635C145.621 140.512 143.382 141.651 140.927 141.836C140.815 141.846 140.702 141.865 140.594 141.888ZM7.48974 133.31L17.4131 121.719L63.2855 161.45L53.3622 173.04L7.48974 133.31Z" stroke="#B7CDDE" stroke-width="4" mask="url(#path-1-outside-1_11_6561)"/>
<mask id="path-2-outside-2_11_6561" maskUnits="userSpaceOnUse" x="235.741" y="37.9766" width="516" height="175" fill="black">
<rect fill="white" x="235.741" y="37.9766" width="516" height="175"/>
<path d="M236.741 170.974V46.1116H249.4L331.058 154.207L328.562 157.417C328.205 155.515 327.908 152.661 327.67 148.855C327.551 145.05 327.373 140.769 327.135 136.012C327.016 131.137 326.898 126.083 326.779 120.851C326.66 115.618 326.541 110.505 326.422 105.51C326.422 100.516 326.422 95.997 326.422 91.9539V46.1116H340.329V170.974H327.314L246.013 64.3058L248.152 60.5599C248.509 65.3166 248.806 70.0138 249.043 74.6515C249.4 79.2893 249.638 83.7486 249.757 88.0296C249.994 92.3106 250.173 96.2349 250.292 99.8023C250.41 103.37 250.47 106.402 250.47 108.899C250.589 111.397 250.648 113.18 250.648 114.251V170.974H236.741Z"/>
<path d="M397.58 172.758C390.448 172.758 384.387 171.331 379.394 168.477C374.521 165.504 370.777 161.223 368.162 155.634C365.666 150.045 364.418 143.088 364.418 134.764V77.8623H377.968V132.088C377.968 138.391 378.8 143.683 380.464 147.963C382.247 152.126 384.862 155.277 388.309 157.417C391.875 159.558 396.213 160.628 401.324 160.628C405.247 160.628 408.872 159.974 412.2 158.666C415.528 157.239 418.44 155.336 420.936 152.958C423.433 150.58 425.394 147.785 426.82 144.574C428.246 141.364 428.96 137.975 428.96 134.407V77.8623H442.331V170.974H429.138L428.603 151.353L430.742 150.282C429.316 154.444 426.939 158.25 423.611 161.698C420.283 165.028 416.301 167.704 411.665 169.725C407.149 171.747 402.453 172.758 397.58 172.758Z"/>
<path d="M499.034 172.758C490.595 172.758 482.988 170.677 476.212 166.514C469.556 162.352 464.267 156.644 460.344 149.391C456.541 142.018 454.639 133.694 454.639 124.418C454.639 115.024 456.6 106.7 460.523 99.4456C464.445 92.0728 469.735 86.3053 476.391 82.1433C483.047 77.9812 490.535 75.9001 498.856 75.9001C503.491 75.9001 507.948 76.6136 512.227 78.0406C516.625 79.4676 520.548 81.4892 523.995 84.1054C527.442 86.6026 530.294 89.5161 532.553 92.8457C534.811 96.0565 536.178 99.4456 536.653 103.013L532.553 101.586V38.9766H545.925V170.974H532.731L532.374 147.785L535.762 146.537C535.287 149.866 533.92 153.136 531.661 156.347C529.522 159.439 526.788 162.233 523.46 164.731C520.132 167.228 516.328 169.19 512.049 170.617C507.889 172.044 503.551 172.758 499.034 172.758ZM500.995 160.45C507.176 160.45 512.703 158.904 517.576 155.812C522.45 152.72 526.253 148.439 528.987 142.969C531.84 137.499 533.266 131.256 533.266 124.24C533.266 117.224 531.84 111.04 528.987 105.689C526.253 100.219 522.45 95.9376 517.576 92.8457C512.703 89.635 507.176 88.0296 500.995 88.0296C494.577 88.0296 488.931 89.635 484.057 92.8457C479.303 95.9376 475.499 100.219 472.647 105.689C469.913 111.04 468.546 117.224 468.546 124.24C468.546 131.137 469.913 137.32 472.647 142.791C475.38 148.261 479.184 152.601 484.057 155.812C488.931 158.904 494.577 160.45 500.995 160.45Z"/>
<path d="M604.956 212C598.062 212 591.525 210.93 585.344 208.789C579.163 206.649 574.052 203.973 570.011 200.762L575.359 189.525C577.737 191.427 580.471 193.092 583.561 194.519C586.77 196.065 590.217 197.254 593.902 198.087C597.587 199.038 601.331 199.514 605.134 199.514C612.028 199.514 617.852 198.206 622.607 195.59C627.48 193.092 631.165 189.346 633.661 184.352C636.276 179.357 637.583 173.174 637.583 165.801V147.963L639.723 147.428C638.653 151.947 636.335 156.169 632.77 160.093C629.204 163.898 624.865 166.99 619.754 169.368C614.643 171.628 609.235 172.758 603.53 172.758C594.853 172.758 587.067 170.677 580.173 166.514C573.398 162.352 568.049 156.644 564.127 149.391C560.205 142.018 558.243 133.694 558.243 124.418C558.243 115.024 560.205 106.7 564.127 99.4456C568.168 92.0728 573.577 86.3053 580.352 82.1433C587.127 77.9812 594.734 75.9001 603.173 75.9001C606.858 75.9001 610.423 76.3758 613.87 77.3271C617.317 78.1596 620.467 79.4082 623.32 81.073C626.292 82.7378 628.966 84.6405 631.343 86.781C633.72 88.9215 635.682 91.2404 637.227 93.7376C638.891 96.2348 640.079 98.7915 640.793 101.408L637.048 100.873L637.583 77.8623H650.955V165.266C650.955 172.758 649.886 179.357 647.746 185.065C645.607 190.892 642.457 195.768 638.297 199.692C634.255 203.735 629.382 206.768 623.677 208.789C618.09 210.93 611.85 212 604.956 212ZM605.134 159.915C611.434 159.915 617.02 158.428 621.894 155.455C626.886 152.363 630.808 148.142 633.661 142.791C636.514 137.439 637.94 131.256 637.94 124.24C637.94 117.343 636.514 111.218 633.661 105.867C630.927 100.516 627.064 96.2943 622.072 93.2025C617.08 90.1107 611.434 88.5647 605.134 88.5647C598.716 88.5647 593.01 90.1107 588.018 93.2025C583.145 96.2943 579.282 100.516 576.429 105.867C573.577 111.218 572.15 117.343 572.15 124.24C572.15 131.018 573.517 137.142 576.251 142.612C579.104 147.964 582.967 152.185 587.84 155.277C592.832 158.369 598.597 159.915 605.134 159.915Z"/>
<path d="M710.845 172.758C701.573 172.758 693.313 170.736 686.062 166.693C678.93 162.65 673.344 157.001 669.303 149.747C665.261 142.493 663.241 134.169 663.241 124.775C663.241 117.521 664.37 110.98 666.628 105.154C668.887 99.2078 672.036 94.0349 676.078 89.635C680.238 85.2351 685.171 81.846 690.876 79.4676C696.581 76.9704 702.762 75.7218 709.418 75.7218C715.718 75.7218 721.423 76.8515 726.534 79.1109C731.764 81.3703 736.221 84.5216 739.906 88.5647C743.71 92.489 746.562 97.1862 748.464 102.656C750.366 108.126 751.198 114.132 750.96 120.672L750.782 126.915H673.225L671.264 115.678H740.619L737.41 118.71V114.429C737.172 110.148 735.924 106.045 733.666 102.121C731.408 98.0781 728.198 94.8079 724.038 92.3106C719.997 89.8134 715.124 88.5647 709.418 88.5647C702.762 88.5647 696.997 89.9323 692.124 92.6674C687.251 95.2835 683.507 99.2078 680.892 104.44C678.277 109.672 676.969 116.153 676.969 123.883C676.969 131.256 678.396 137.677 681.248 143.147C684.101 148.499 688.142 152.661 693.372 155.634C698.721 158.607 705.139 160.093 712.628 160.093C717.025 160.093 721.364 159.379 725.643 157.952C730.041 156.407 734.855 153.434 740.085 149.034L747.038 158.666C744.304 161.401 741.035 163.839 737.232 165.979C733.428 168.001 729.268 169.666 724.751 170.974C720.235 172.163 715.599 172.758 710.845 172.758Z"/>
</mask>
<path d="M236.741 170.974V46.1116H249.4L331.058 154.207L328.562 157.417C328.205 155.515 327.908 152.661 327.67 148.855C327.551 145.05 327.373 140.769 327.135 136.012C327.016 131.137 326.898 126.083 326.779 120.851C326.66 115.618 326.541 110.505 326.422 105.51C326.422 100.516 326.422 95.997 326.422 91.9539V46.1116H340.329V170.974H327.314L246.013 64.3058L248.152 60.5599C248.509 65.3166 248.806 70.0138 249.043 74.6515C249.4 79.2893 249.638 83.7486 249.757 88.0296C249.994 92.3106 250.173 96.2349 250.292 99.8023C250.41 103.37 250.47 106.402 250.47 108.899C250.589 111.397 250.648 113.18 250.648 114.251V170.974H236.741Z" fill="#B7CDDE"/>
<path d="M397.58 172.758C390.448 172.758 384.387 171.331 379.394 168.477C374.521 165.504 370.777 161.223 368.162 155.634C365.666 150.045 364.418 143.088 364.418 134.764V77.8623H377.968V132.088C377.968 138.391 378.8 143.683 380.464 147.963C382.247 152.126 384.862 155.277 388.309 157.417C391.875 159.558 396.213 160.628 401.324 160.628C405.247 160.628 408.872 159.974 412.2 158.666C415.528 157.239 418.44 155.336 420.936 152.958C423.433 150.58 425.394 147.785 426.82 144.574C428.246 141.364 428.96 137.975 428.96 134.407V77.8623H442.331V170.974H429.138L428.603 151.353L430.742 150.282C429.316 154.444 426.939 158.25 423.611 161.698C420.283 165.028 416.301 167.704 411.665 169.725C407.149 171.747 402.453 172.758 397.58 172.758Z" fill="#B7CDDE"/>
<path d="M499.034 172.758C490.595 172.758 482.988 170.677 476.212 166.514C469.556 162.352 464.267 156.644 460.344 149.391C456.541 142.018 454.639 133.694 454.639 124.418C454.639 115.024 456.6 106.7 460.523 99.4456C464.445 92.0728 469.735 86.3053 476.391 82.1433C483.047 77.9812 490.535 75.9001 498.856 75.9001C503.491 75.9001 507.948 76.6136 512.227 78.0406C516.625 79.4676 520.548 81.4892 523.995 84.1054C527.442 86.6026 530.294 89.5161 532.553 92.8457C534.811 96.0565 536.178 99.4456 536.653 103.013L532.553 101.586V38.9766H545.925V170.974H532.731L532.374 147.785L535.762 146.537C535.287 149.866 533.92 153.136 531.661 156.347C529.522 159.439 526.788 162.233 523.46 164.731C520.132 167.228 516.328 169.19 512.049 170.617C507.889 172.044 503.551 172.758 499.034 172.758ZM500.995 160.45C507.176 160.45 512.703 158.904 517.576 155.812C522.45 152.72 526.253 148.439 528.987 142.969C531.84 137.499 533.266 131.256 533.266 124.24C533.266 117.224 531.84 111.04 528.987 105.689C526.253 100.219 522.45 95.9376 517.576 92.8457C512.703 89.635 507.176 88.0296 500.995 88.0296C494.577 88.0296 488.931 89.635 484.057 92.8457C479.303 95.9376 475.499 100.219 472.647 105.689C469.913 111.04 468.546 117.224 468.546 124.24C468.546 131.137 469.913 137.32 472.647 142.791C475.38 148.261 479.184 152.601 484.057 155.812C488.931 158.904 494.577 160.45 500.995 160.45Z" fill="#B7CDDE"/>
<path d="M604.956 212C598.062 212 591.525 210.93 585.344 208.789C579.163 206.649 574.052 203.973 570.011 200.762L575.359 189.525C577.737 191.427 580.471 193.092 583.561 194.519C586.77 196.065 590.217 197.254 593.902 198.087C597.587 199.038 601.331 199.514 605.134 199.514C612.028 199.514 617.852 198.206 622.607 195.59C627.48 193.092 631.165 189.346 633.661 184.352C636.276 179.357 637.583 173.174 637.583 165.801V147.963L639.723 147.428C638.653 151.947 636.335 156.169 632.77 160.093C629.204 163.898 624.865 166.99 619.754 169.368C614.643 171.628 609.235 172.758 603.53 172.758C594.853 172.758 587.067 170.677 580.173 166.514C573.398 162.352 568.049 156.644 564.127 149.391C560.205 142.018 558.243 133.694 558.243 124.418C558.243 115.024 560.205 106.7 564.127 99.4456C568.168 92.0728 573.577 86.3053 580.352 82.1433C587.127 77.9812 594.734 75.9001 603.173 75.9001C606.858 75.9001 610.423 76.3758 613.87 77.3271C617.317 78.1596 620.467 79.4082 623.32 81.073C626.292 82.7378 628.966 84.6405 631.343 86.781C633.72 88.9215 635.682 91.2404 637.227 93.7376C638.891 96.2348 640.079 98.7915 640.793 101.408L637.048 100.873L637.583 77.8623H650.955V165.266C650.955 172.758 649.886 179.357 647.746 185.065C645.607 190.892 642.457 195.768 638.297 199.692C634.255 203.735 629.382 206.768 623.677 208.789C618.09 210.93 611.85 212 604.956 212ZM605.134 159.915C611.434 159.915 617.02 158.428 621.894 155.455C626.886 152.363 630.808 148.142 633.661 142.791C636.514 137.439 637.94 131.256 637.94 124.24C637.94 117.343 636.514 111.218 633.661 105.867C630.927 100.516 627.064 96.2943 622.072 93.2025C617.08 90.1107 611.434 88.5647 605.134 88.5647C598.716 88.5647 593.01 90.1107 588.018 93.2025C583.145 96.2943 579.282 100.516 576.429 105.867C573.577 111.218 572.15 117.343 572.15 124.24C572.15 131.018 573.517 137.142 576.251 142.612C579.104 147.964 582.967 152.185 587.84 155.277C592.832 158.369 598.597 159.915 605.134 159.915Z" fill="#B7CDDE"/>
<path d="M710.845 172.758C701.573 172.758 693.313 170.736 686.062 166.693C678.93 162.65 673.344 157.001 669.303 149.747C665.261 142.493 663.241 134.169 663.241 124.775C663.241 117.521 664.37 110.98 666.628 105.154C668.887 99.2078 672.036 94.0349 676.078 89.635C680.238 85.2351 685.171 81.846 690.876 79.4676C696.581 76.9704 702.762 75.7218 709.418 75.7218C715.718 75.7218 721.423 76.8515 726.534 79.1109C731.764 81.3703 736.221 84.5216 739.906 88.5647C743.71 92.489 746.562 97.1862 748.464 102.656C750.366 108.126 751.198 114.132 750.96 120.672L750.782 126.915H673.225L671.264 115.678H740.619L737.41 118.71V114.429C737.172 110.148 735.924 106.045 733.666 102.121C731.408 98.0781 728.198 94.8079 724.038 92.3106C719.997 89.8134 715.124 88.5647 709.418 88.5647C702.762 88.5647 696.997 89.9323 692.124 92.6674C687.251 95.2835 683.507 99.2078 680.892 104.44C678.277 109.672 676.969 116.153 676.969 123.883C676.969 131.256 678.396 137.677 681.248 143.147C684.101 148.499 688.142 152.661 693.372 155.634C698.721 158.607 705.139 160.093 712.628 160.093C717.025 160.093 721.364 159.379 725.643 157.952C730.041 156.407 734.855 153.434 740.085 149.034L747.038 158.666C744.304 161.401 741.035 163.839 737.232 165.979C733.428 168.001 729.268 169.666 724.751 170.974C720.235 172.163 715.599 172.758 710.845 172.758Z" fill="#B7CDDE"/>
<path d="M236.741 170.974V46.1116H249.4L331.058 154.207L328.562 157.417C328.205 155.515 327.908 152.661 327.67 148.855C327.551 145.05 327.373 140.769 327.135 136.012C327.016 131.137 326.898 126.083 326.779 120.851C326.66 115.618 326.541 110.505 326.422 105.51C326.422 100.516 326.422 95.997 326.422 91.9539V46.1116H340.329V170.974H327.314L246.013 64.3058L248.152 60.5599C248.509 65.3166 248.806 70.0138 249.043 74.6515C249.4 79.2893 249.638 83.7486 249.757 88.0296C249.994 92.3106 250.173 96.2349 250.292 99.8023C250.41 103.37 250.47 106.402 250.47 108.899C250.589 111.397 250.648 113.18 250.648 114.251V170.974H236.741Z" stroke="#B7CDDE" stroke-width="0.4" mask="url(#path-2-outside-2_11_6561)"/>
<path d="M397.58 172.758C390.448 172.758 384.387 171.331 379.394 168.477C374.521 165.504 370.777 161.223 368.162 155.634C365.666 150.045 364.418 143.088 364.418 134.764V77.8623H377.968V132.088C377.968 138.391 378.8 143.683 380.464 147.963C382.247 152.126 384.862 155.277 388.309 157.417C391.875 159.558 396.213 160.628 401.324 160.628C405.247 160.628 408.872 159.974 412.2 158.666C415.528 157.239 418.44 155.336 420.936 152.958C423.433 150.58 425.394 147.785 426.82 144.574C428.246 141.364 428.96 137.975 428.96 134.407V77.8623H442.331V170.974H429.138L428.603 151.353L430.742 150.282C429.316 154.444 426.939 158.25 423.611 161.698C420.283 165.028 416.301 167.704 411.665 169.725C407.149 171.747 402.453 172.758 397.58 172.758Z" stroke="#B7CDDE" stroke-width="0.4" mask="url(#path-2-outside-2_11_6561)"/>
<path d="M499.034 172.758C490.595 172.758 482.988 170.677 476.212 166.514C469.556 162.352 464.267 156.644 460.344 149.391C456.541 142.018 454.639 133.694 454.639 124.418C454.639 115.024 456.6 106.7 460.523 99.4456C464.445 92.0728 469.735 86.3053 476.391 82.1433C483.047 77.9812 490.535 75.9001 498.856 75.9001C503.491 75.9001 507.948 76.6136 512.227 78.0406C516.625 79.4676 520.548 81.4892 523.995 84.1054C527.442 86.6026 530.294 89.5161 532.553 92.8457C534.811 96.0565 536.178 99.4456 536.653 103.013L532.553 101.586V38.9766H545.925V170.974H532.731L532.374 147.785L535.762 146.537C535.287 149.866 533.92 153.136 531.661 156.347C529.522 159.439 526.788 162.233 523.46 164.731C520.132 167.228 516.328 169.19 512.049 170.617C507.889 172.044 503.551 172.758 499.034 172.758ZM500.995 160.45C507.176 160.45 512.703 158.904 517.576 155.812C522.45 152.72 526.253 148.439 528.987 142.969C531.84 137.499 533.266 131.256 533.266 124.24C533.266 117.224 531.84 111.04 528.987 105.689C526.253 100.219 522.45 95.9376 517.576 92.8457C512.703 89.635 507.176 88.0296 500.995 88.0296C494.577 88.0296 488.931 89.635 484.057 92.8457C479.303 95.9376 475.499 100.219 472.647 105.689C469.913 111.04 468.546 117.224 468.546 124.24C468.546 131.137 469.913 137.32 472.647 142.791C475.38 148.261 479.184 152.601 484.057 155.812C488.931 158.904 494.577 160.45 500.995 160.45Z" stroke="#B7CDDE" stroke-width="0.4" mask="url(#path-2-outside-2_11_6561)"/>
<path d="M604.956 212C598.062 212 591.525 210.93 585.344 208.789C579.163 206.649 574.052 203.973 570.011 200.762L575.359 189.525C577.737 191.427 580.471 193.092 583.561 194.519C586.77 196.065 590.217 197.254 593.902 198.087C597.587 199.038 601.331 199.514 605.134 199.514C612.028 199.514 617.852 198.206 622.607 195.59C627.48 193.092 631.165 189.346 633.661 184.352C636.276 179.357 637.583 173.174 637.583 165.801V147.963L639.723 147.428C638.653 151.947 636.335 156.169 632.77 160.093C629.204 163.898 624.865 166.99 619.754 169.368C614.643 171.628 609.235 172.758 603.53 172.758C594.853 172.758 587.067 170.677 580.173 166.514C573.398 162.352 568.049 156.644 564.127 149.391C560.205 142.018 558.243 133.694 558.243 124.418C558.243 115.024 560.205 106.7 564.127 99.4456C568.168 92.0728 573.577 86.3053 580.352 82.1433C587.127 77.9812 594.734 75.9001 603.173 75.9001C606.858 75.9001 610.423 76.3758 613.87 77.3271C617.317 78.1596 620.467 79.4082 623.32 81.073C626.292 82.7378 628.966 84.6405 631.343 86.781C633.72 88.9215 635.682 91.2404 637.227 93.7376C638.891 96.2348 640.079 98.7915 640.793 101.408L637.048 100.873L637.583 77.8623H650.955V165.266C650.955 172.758 649.886 179.357 647.746 185.065C645.607 190.892 642.457 195.768 638.297 199.692C634.255 203.735 629.382 206.768 623.677 208.789C618.09 210.93 611.85 212 604.956 212ZM605.134 159.915C611.434 159.915 617.02 158.428 621.894 155.455C626.886 152.363 630.808 148.142 633.661 142.791C636.514 137.439 637.94 131.256 637.94 124.24C637.94 117.343 636.514 111.218 633.661 105.867C630.927 100.516 627.064 96.2943 622.072 93.2025C617.08 90.1107 611.434 88.5647 605.134 88.5647C598.716 88.5647 593.01 90.1107 588.018 93.2025C583.145 96.2943 579.282 100.516 576.429 105.867C573.577 111.218 572.15 117.343 572.15 124.24C572.15 131.018 573.517 137.142 576.251 142.612C579.104 147.964 582.967 152.185 587.84 155.277C592.832 158.369 598.597 159.915 605.134 159.915Z" stroke="#B7CDDE" stroke-width="0.4" mask="url(#path-2-outside-2_11_6561)"/>
<path d="M710.845 172.758C701.573 172.758 693.313 170.736 686.062 166.693C678.93 162.65 673.344 157.001 669.303 149.747C665.261 142.493 663.241 134.169 663.241 124.775C663.241 117.521 664.37 110.98 666.628 105.154C668.887 99.2078 672.036 94.0349 676.078 89.635C680.238 85.2351 685.171 81.846 690.876 79.4676C696.581 76.9704 702.762 75.7218 709.418 75.7218C715.718 75.7218 721.423 76.8515 726.534 79.1109C731.764 81.3703 736.221 84.5216 739.906 88.5647C743.71 92.489 746.562 97.1862 748.464 102.656C750.366 108.126 751.198 114.132 750.96 120.672L750.782 126.915H673.225L671.264 115.678H740.619L737.41 118.71V114.429C737.172 110.148 735.924 106.045 733.666 102.121C731.408 98.0781 728.198 94.8079 724.038 92.3106C719.997 89.8134 715.124 88.5647 709.418 88.5647C702.762 88.5647 696.997 89.9323 692.124 92.6674C687.251 95.2835 683.507 99.2078 680.892 104.44C678.277 109.672 676.969 116.153 676.969 123.883C676.969 131.256 678.396 137.677 681.248 143.147C684.101 148.499 688.142 152.661 693.372 155.634C698.721 158.607 705.139 160.093 712.628 160.093C717.025 160.093 721.364 159.379 725.643 157.952C730.041 156.407 734.855 153.434 740.085 149.034L747.038 158.666C744.304 161.401 741.035 163.839 737.232 165.979C733.428 168.001 729.268 169.666 724.751 170.974C720.235 172.163 715.599 172.758 710.845 172.758Z" stroke="#B7CDDE" stroke-width="0.4" mask="url(#path-2-outside-2_11_6561)"/>
</svg>
