<svg width="29" height="32" viewBox="0 0 29 32" fill="none" xmlns="http://www.w3.org/2000/svg">
<g id="Group 2">
<g id="Group 1">
<g id="Subtract">
<path fill-rule="evenodd" clip-rule="evenodd" d="M13.1765 3.64312C13.4745 3.34515 13.8786 3.17775 14.3 3.17775C14.7214 3.17775 15.1256 3.34515 15.4235 3.64312C15.5072 3.7268 15.5806 3.81886 15.6429 3.91733C16.1554 2.95546 16.9453 2.16378 17.9058 1.64904C17.8307 1.5622 17.7522 1.47783 17.6705 1.39611C16.7766 0.502196 15.5642 0 14.3 0C13.0358 0 11.8234 0.502196 10.9295 1.39611C10.2809 2.04469 9.83856 2.86092 9.6446 3.74294C7.90325 4.72251 6.41342 6.10113 5.30047 7.77055C4.02093 9.68986 3.2878 11.9212 3.17964 14.2254C3.17848 14.2502 3.1779 14.275 3.1779 14.2999V18.9638C3.07863 19.6727 2.82089 20.3506 2.4234 20.9468C2.00944 21.5677 1.45548 22.0828 0.806097 22.4505C0.178183 22.8061 -0.131271 23.5402 0.0525823 24.2379C0.236435 24.9357 0.867421 25.422 1.58902 25.422H7.94452C7.94452 27.1076 8.61411 28.7241 9.806 29.916C10.9979 31.1079 12.6144 31.7775 14.3 31.7775C15.9856 31.7775 17.6021 31.1079 18.794 29.916C19.9859 28.7241 20.6555 27.1076 20.6555 25.422H27.011C27.7326 25.422 28.3636 24.9357 28.5475 24.2379C28.7313 23.5402 28.4219 22.8061 27.7939 22.4505C27.1446 22.0828 26.5906 21.5677 26.1766 20.9468C25.7791 20.3506 25.5214 19.6727 25.4221 18.9638V14.2999C25.4221 14.275 25.4216 14.2502 25.4204 14.2254C25.3554 12.8413 25.065 11.4835 24.566 10.2038C23.8357 11.0051 22.8716 11.5897 21.7817 11.8499C22.0447 12.6516 22.2013 13.4883 22.2444 14.3386V19.0665C22.2444 19.1303 22.2482 19.1941 22.2559 19.2574C22.3834 20.3108 22.7204 21.3261 23.245 22.2442H5.35499C5.87962 21.3261 6.21662 20.3108 6.34413 19.2574C6.3518 19.1941 6.35564 19.1303 6.35564 19.0665V14.3386C6.44263 12.6231 6.99149 10.9628 7.94452 9.53325C8.90418 8.09376 10.2375 6.94256 11.8015 6.20301C12.3569 5.94037 12.7111 5.38103 12.7111 4.76662C12.7111 4.34523 12.8785 3.94109 13.1765 3.64312ZM11.1223 25.422H17.4778C17.4778 26.2648 17.143 27.0731 16.547 27.669C15.9511 28.2649 15.1428 28.5997 14.3 28.5997C13.4572 28.5997 12.649 28.2649 12.053 27.669C11.4571 27.0731 11.1223 26.2648 11.1223 25.422Z" fill="#6C899C"/>
<path fill-rule="evenodd" clip-rule="evenodd" d="M13.1765 3.64312C13.4745 3.34515 13.8786 3.17775 14.3 3.17775C14.7214 3.17775 15.1256 3.34515 15.4235 3.64312C15.5072 3.7268 15.5806 3.81886 15.6429 3.91733C16.1554 2.95546 16.9453 2.16378 17.9058 1.64904C17.8307 1.5622 17.7522 1.47783 17.6705 1.39611C16.7766 0.502196 15.5642 0 14.3 0C13.0358 0 11.8234 0.502196 10.9295 1.39611C10.2809 2.04469 9.83856 2.86092 9.6446 3.74294C7.90325 4.72251 6.41342 6.10113 5.30047 7.77055C4.02093 9.68986 3.2878 11.9212 3.17964 14.2254C3.17848 14.2502 3.1779 14.275 3.1779 14.2999V18.9638C3.07863 19.6727 2.82089 20.3506 2.4234 20.9468C2.00944 21.5677 1.45548 22.0828 0.806097 22.4505C0.178183 22.8061 -0.131271 23.5402 0.0525823 24.2379C0.236435 24.9357 0.867421 25.422 1.58902 25.422H7.94452C7.94452 27.1076 8.61411 28.7241 9.806 29.916C10.9979 31.1079 12.6144 31.7775 14.3 31.7775C15.9856 31.7775 17.6021 31.1079 18.794 29.916C19.9859 28.7241 20.6555 27.1076 20.6555 25.422H27.011C27.7326 25.422 28.3636 24.9357 28.5475 24.2379C28.7313 23.5402 28.4219 22.8061 27.7939 22.4505C27.1446 22.0828 26.5906 21.5677 26.1766 20.9468C25.7791 20.3506 25.5214 19.6727 25.4221 18.9638V14.2999C25.4221 14.275 25.4216 14.2502 25.4204 14.2254C25.3554 12.8413 25.065 11.4835 24.566 10.2038C23.8357 11.0051 22.8716 11.5897 21.7817 11.8499C22.0447 12.6516 22.2013 13.4883 22.2444 14.3386V19.0665C22.2444 19.1303 22.2482 19.1941 22.2559 19.2574C22.3834 20.3108 22.7204 21.3261 23.245 22.2442H5.35499C5.87962 21.3261 6.21662 20.3108 6.34413 19.2574C6.3518 19.1941 6.35564 19.1303 6.35564 19.0665V14.3386C6.44263 12.6231 6.99149 10.9628 7.94452 9.53325C8.90418 8.09376 10.2375 6.94256 11.8015 6.20301C12.3569 5.94037 12.7111 5.38103 12.7111 4.76662C12.7111 4.34523 12.8785 3.94109 13.1765 3.64312ZM11.1223 25.422H17.4778C17.4778 26.2648 17.143 27.0731 16.547 27.669C15.9511 28.2649 15.1428 28.5997 14.3 28.5997C13.4572 28.5997 12.649 28.2649 12.053 27.669C11.4571 27.0731 11.1223 26.2648 11.1223 25.422Z" fill="black" fill-opacity="0.2"/>
</g>
<circle id="Ellipse 3" cx="21" cy="6" r="4" fill="#FA5252"/>
</g>
</g>
</svg>
