<svg width="217" height="181" viewBox="0 0 217 181" fill="none" xmlns="http://www.w3.org/2000/svg">
<mask id="path-1-outside-1_252_3501" maskUnits="userSpaceOnUse" x="0" y="-1" width="217" height="182" fill="black">
<rect fill="white" y="-1" width="217" height="182"/>
<path d="M175.703 40.5243C176.476 40.6708 177.305 40.4111 177.857 39.7657L196.807 17.6269C197.628 16.6664 197.523 15.2203 196.57 14.394C195.616 13.5648 194.18 13.6791 193.357 14.6391L174.407 36.7803C173.586 37.7407 173.691 39.1869 174.644 40.0107C174.958 40.2839 175.323 40.4522 175.703 40.5243ZM182.691 54.4869C181.701 54.2993 180.925 53.4632 180.847 52.4061C180.755 51.1455 181.696 50.045 182.952 49.9475L211.881 47.741C213.14 47.6415 214.225 48.5921 214.319 49.8532C214.411 51.1163 213.468 52.2163 212.215 52.3118L183.286 54.5184C183.081 54.533 182.881 54.523 182.691 54.4869ZM179.725 65.3601L201.686 84.3783C202.639 85.2045 202.744 86.6507 201.923 87.6112C201.369 88.2561 200.542 88.5163 199.769 88.3698C199.388 88.2977 199.024 88.1294 198.709 87.8562L176.75 68.8385C175.798 68.0147 175.69 66.5681 176.514 65.6056C177.337 64.6481 178.773 64.5339 179.725 65.3601ZM147.049 42.7091C146.671 42.6375 146.301 42.4683 145.989 42.1955L124.03 23.1779C123.078 22.3516 122.973 20.9054 123.794 19.945C124.617 18.985 126.058 18.8741 127.007 19.6999L148.966 38.7201C149.919 39.5439 150.024 40.99 149.203 41.9505C148.651 42.5959 147.822 42.8556 147.049 42.7091ZM161.536 35.6801C161.333 35.6951 161.131 35.6846 160.94 35.6486C159.951 35.461 159.174 34.6249 159.097 33.5678L156.969 4.46642C156.877 3.2033 157.818 2.10286 159.074 2.00782C160.333 1.90342 161.421 2.85698 161.512 4.12009L163.64 33.2215C163.732 34.4821 162.791 35.585 161.536 35.6801ZM2.79019 135.294L52.1124 178.013C52.4165 178.274 52.7842 178.453 53.1742 178.527C53.3668 178.563 53.567 178.573 53.7669 178.558C54.3691 178.512 54.9283 178.226 55.3234 177.767L67.7315 163.271L141.436 146.392C145.034 146.075 148.31 144.382 150.674 141.622C153.077 138.816 154.252 135.238 153.984 131.546C153.426 123.931 146.807 118.206 139.243 118.778L124.401 119.91L169.629 67.0766C174.585 61.2816 173.945 52.5162 168.199 47.5398C162.455 42.5586 153.739 43.2274 148.778 49.0215L130.34 70.5633C129.929 67.2795 128.36 64.1371 125.681 61.814C120.4 57.2434 112.618 57.4309 107.543 61.9833C107.15 58.5146 105.502 55.3726 102.86 53.0819C100.074 50.6699 96.5256 49.4964 92.8535 49.7765C89.7962 50.0105 86.9614 51.2299 84.7136 53.2571C84.3338 49.9157 82.7596 46.7063 80.0364 44.3494C74.2952 39.3789 65.5791 40.035 60.6177 45.8291L24.8438 87.6188C24.6429 87.8528 24.493 88.1244 24.3993 88.4193L15.241 117.24L2.55391 132.061C1.7306 133.021 1.83797 134.468 2.79019 135.294ZM140.594 141.888L67.1173 158.713L19.8472 117.775L28.5956 90.2521L64.065 48.8165C67.3851 44.9409 73.2112 44.4894 77.0597 47.8249C80.9063 51.1574 81.3341 57.0198 78.0154 60.9008C77.9894 60.9315 77.982 60.9707 77.9584 61.0018L69.4769 70.9133C68.6536 71.8734 68.761 73.32 69.7132 74.1462C70.0257 74.4165 70.3928 74.5852 70.7731 74.6573C71.546 74.8038 72.3731 74.5437 72.9271 73.8987L86.1792 58.4137C86.2052 58.3831 86.2127 58.3438 86.2367 58.3102L86.8885 57.549C90.2038 53.6725 96.0337 53.2268 99.8828 56.5599C101.747 58.1717 102.872 60.4213 103.053 62.8913C103.233 65.3558 102.449 67.747 100.846 69.622L100.808 69.6886L86.8667 85.9734C86.0434 86.9334 86.1508 88.38 87.103 89.2063C87.4155 89.4765 87.7821 89.6477 88.1625 89.7198C88.9353 89.8663 89.7624 89.6062 90.3165 88.9612L106.646 69.8825L106.677 69.8273L109.712 66.284C113.03 62.4055 118.858 61.957 122.704 65.292C126.548 68.6216 126.98 74.4795 123.669 78.357L104.254 101.035C103.433 101.996 103.538 103.442 104.49 104.268C104.805 104.539 105.172 104.708 105.55 104.779C106.325 104.926 107.152 104.666 107.704 104.021L152.228 52.0069C155.549 48.1288 161.381 47.6861 165.225 51.0158C169.069 54.3479 169.497 60.2127 166.179 64.0888L117.361 121.121C116.757 121.825 116.637 122.822 117.051 123.648C117.465 124.476 118.331 124.973 119.251 124.899L139.577 123.349C140.397 123.286 141.201 123.334 141.977 123.481C145.973 124.239 149.128 127.621 149.441 131.89C149.622 134.36 148.835 136.756 147.226 138.635C145.621 140.512 143.382 141.651 140.927 141.836C140.815 141.846 140.702 141.865 140.594 141.888ZM7.48974 133.31L17.4131 121.719L63.2855 161.45L53.3622 173.04L7.48974 133.31Z"/>
</mask>
<path d="M175.703 40.5243C176.476 40.6708 177.305 40.4111 177.857 39.7657L196.807 17.6269C197.628 16.6664 197.523 15.2203 196.57 14.394C195.616 13.5648 194.18 13.6791 193.357 14.6391L174.407 36.7803C173.586 37.7407 173.691 39.1869 174.644 40.0107C174.958 40.2839 175.323 40.4522 175.703 40.5243ZM182.691 54.4869C181.701 54.2993 180.925 53.4632 180.847 52.4061C180.755 51.1455 181.696 50.045 182.952 49.9475L211.881 47.741C213.14 47.6415 214.225 48.5921 214.319 49.8532C214.411 51.1163 213.468 52.2163 212.215 52.3118L183.286 54.5184C183.081 54.533 182.881 54.523 182.691 54.4869ZM179.725 65.3601L201.686 84.3783C202.639 85.2045 202.744 86.6507 201.923 87.6112C201.369 88.2561 200.542 88.5163 199.769 88.3698C199.388 88.2977 199.024 88.1294 198.709 87.8562L176.75 68.8385C175.798 68.0147 175.69 66.5681 176.514 65.6056C177.337 64.6481 178.773 64.5339 179.725 65.3601ZM147.049 42.7091C146.671 42.6375 146.301 42.4683 145.989 42.1955L124.03 23.1779C123.078 22.3516 122.973 20.9054 123.794 19.945C124.617 18.985 126.058 18.8741 127.007 19.6999L148.966 38.7201C149.919 39.5439 150.024 40.99 149.203 41.9505C148.651 42.5959 147.822 42.8556 147.049 42.7091ZM161.536 35.6801C161.333 35.6951 161.131 35.6846 160.94 35.6486C159.951 35.461 159.174 34.6249 159.097 33.5678L156.969 4.46642C156.877 3.2033 157.818 2.10286 159.074 2.00782C160.333 1.90342 161.421 2.85698 161.512 4.12009L163.64 33.2215C163.732 34.4821 162.791 35.585 161.536 35.6801ZM2.79019 135.294L52.1124 178.013C52.4165 178.274 52.7842 178.453 53.1742 178.527C53.3668 178.563 53.567 178.573 53.7669 178.558C54.3691 178.512 54.9283 178.226 55.3234 177.767L67.7315 163.271L141.436 146.392C145.034 146.075 148.31 144.382 150.674 141.622C153.077 138.816 154.252 135.238 153.984 131.546C153.426 123.931 146.807 118.206 139.243 118.778L124.401 119.91L169.629 67.0766C174.585 61.2816 173.945 52.5162 168.199 47.5398C162.455 42.5586 153.739 43.2274 148.778 49.0215L130.34 70.5633C129.929 67.2795 128.36 64.1371 125.681 61.814C120.4 57.2434 112.618 57.4309 107.543 61.9833C107.15 58.5146 105.502 55.3726 102.86 53.0819C100.074 50.6699 96.5256 49.4964 92.8535 49.7765C89.7962 50.0105 86.9614 51.2299 84.7136 53.2571C84.3338 49.9157 82.7596 46.7063 80.0364 44.3494C74.2952 39.3789 65.5791 40.035 60.6177 45.8291L24.8438 87.6188C24.6429 87.8528 24.493 88.1244 24.3993 88.4193L15.241 117.24L2.55391 132.061C1.7306 133.021 1.83797 134.468 2.79019 135.294ZM140.594 141.888L67.1173 158.713L19.8472 117.775L28.5956 90.2521L64.065 48.8165C67.3851 44.9409 73.2112 44.4894 77.0597 47.8249C80.9063 51.1574 81.3341 57.0198 78.0154 60.9008C77.9894 60.9315 77.982 60.9707 77.9584 61.0018L69.4769 70.9133C68.6536 71.8734 68.761 73.32 69.7132 74.1462C70.0257 74.4165 70.3928 74.5852 70.7731 74.6573C71.546 74.8038 72.3731 74.5437 72.9271 73.8987L86.1792 58.4137C86.2052 58.3831 86.2127 58.3438 86.2367 58.3102L86.8885 57.549C90.2038 53.6725 96.0337 53.2268 99.8828 56.5599C101.747 58.1717 102.872 60.4213 103.053 62.8913C103.233 65.3558 102.449 67.747 100.846 69.622L100.808 69.6886L86.8667 85.9734C86.0434 86.9334 86.1508 88.38 87.103 89.2063C87.4155 89.4765 87.7821 89.6477 88.1625 89.7198C88.9353 89.8663 89.7624 89.6062 90.3165 88.9612L106.646 69.8825L106.677 69.8273L109.712 66.284C113.03 62.4055 118.858 61.957 122.704 65.292C126.548 68.6216 126.98 74.4795 123.669 78.357L104.254 101.035C103.433 101.996 103.538 103.442 104.49 104.268C104.805 104.539 105.172 104.708 105.55 104.779C106.325 104.926 107.152 104.666 107.704 104.021L152.228 52.0069C155.549 48.1288 161.381 47.6861 165.225 51.0158C169.069 54.3479 169.497 60.2127 166.179 64.0888L117.361 121.121C116.757 121.825 116.637 122.822 117.051 123.648C117.465 124.476 118.331 124.973 119.251 124.899L139.577 123.349C140.397 123.286 141.201 123.334 141.977 123.481C145.973 124.239 149.128 127.621 149.441 131.89C149.622 134.36 148.835 136.756 147.226 138.635C145.621 140.512 143.382 141.651 140.927 141.836C140.815 141.846 140.702 141.865 140.594 141.888ZM7.48974 133.31L17.4131 121.719L63.2855 161.45L53.3622 173.04L7.48974 133.31Z" fill="#B7CDDE"/>
<path d="M175.703 40.5243C176.476 40.6708 177.305 40.4111 177.857 39.7657L196.807 17.6269C197.628 16.6664 197.523 15.2203 196.57 14.394C195.616 13.5648 194.18 13.6791 193.357 14.6391L174.407 36.7803C173.586 37.7407 173.691 39.1869 174.644 40.0107C174.958 40.2839 175.323 40.4522 175.703 40.5243ZM182.691 54.4869C181.701 54.2993 180.925 53.4632 180.847 52.4061C180.755 51.1455 181.696 50.045 182.952 49.9475L211.881 47.741C213.14 47.6415 214.225 48.5921 214.319 49.8532C214.411 51.1163 213.468 52.2163 212.215 52.3118L183.286 54.5184C183.081 54.533 182.881 54.523 182.691 54.4869ZM179.725 65.3601L201.686 84.3783C202.639 85.2045 202.744 86.6507 201.923 87.6112C201.369 88.2561 200.542 88.5163 199.769 88.3698C199.388 88.2977 199.024 88.1294 198.709 87.8562L176.75 68.8385C175.798 68.0147 175.69 66.5681 176.514 65.6056C177.337 64.6481 178.773 64.5339 179.725 65.3601ZM147.049 42.7091C146.671 42.6375 146.301 42.4683 145.989 42.1955L124.03 23.1779C123.078 22.3516 122.973 20.9054 123.794 19.945C124.617 18.985 126.058 18.8741 127.007 19.6999L148.966 38.7201C149.919 39.5439 150.024 40.99 149.203 41.9505C148.651 42.5959 147.822 42.8556 147.049 42.7091ZM161.536 35.6801C161.333 35.6951 161.131 35.6846 160.94 35.6486C159.951 35.461 159.174 34.6249 159.097 33.5678L156.969 4.46642C156.877 3.2033 157.818 2.10286 159.074 2.00782C160.333 1.90342 161.421 2.85698 161.512 4.12009L163.64 33.2215C163.732 34.4821 162.791 35.585 161.536 35.6801ZM2.79019 135.294L52.1124 178.013C52.4165 178.274 52.7842 178.453 53.1742 178.527C53.3668 178.563 53.567 178.573 53.7669 178.558C54.3691 178.512 54.9283 178.226 55.3234 177.767L67.7315 163.271L141.436 146.392C145.034 146.075 148.31 144.382 150.674 141.622C153.077 138.816 154.252 135.238 153.984 131.546C153.426 123.931 146.807 118.206 139.243 118.778L124.401 119.91L169.629 67.0766C174.585 61.2816 173.945 52.5162 168.199 47.5398C162.455 42.5586 153.739 43.2274 148.778 49.0215L130.34 70.5633C129.929 67.2795 128.36 64.1371 125.681 61.814C120.4 57.2434 112.618 57.4309 107.543 61.9833C107.15 58.5146 105.502 55.3726 102.86 53.0819C100.074 50.6699 96.5256 49.4964 92.8535 49.7765C89.7962 50.0105 86.9614 51.2299 84.7136 53.2571C84.3338 49.9157 82.7596 46.7063 80.0364 44.3494C74.2952 39.3789 65.5791 40.035 60.6177 45.8291L24.8438 87.6188C24.6429 87.8528 24.493 88.1244 24.3993 88.4193L15.241 117.24L2.55391 132.061C1.7306 133.021 1.83797 134.468 2.79019 135.294ZM140.594 141.888L67.1173 158.713L19.8472 117.775L28.5956 90.2521L64.065 48.8165C67.3851 44.9409 73.2112 44.4894 77.0597 47.8249C80.9063 51.1574 81.3341 57.0198 78.0154 60.9008C77.9894 60.9315 77.982 60.9707 77.9584 61.0018L69.4769 70.9133C68.6536 71.8734 68.761 73.32 69.7132 74.1462C70.0257 74.4165 70.3928 74.5852 70.7731 74.6573C71.546 74.8038 72.3731 74.5437 72.9271 73.8987L86.1792 58.4137C86.2052 58.3831 86.2127 58.3438 86.2367 58.3102L86.8885 57.549C90.2038 53.6725 96.0337 53.2268 99.8828 56.5599C101.747 58.1717 102.872 60.4213 103.053 62.8913C103.233 65.3558 102.449 67.747 100.846 69.622L100.808 69.6886L86.8667 85.9734C86.0434 86.9334 86.1508 88.38 87.103 89.2063C87.4155 89.4765 87.7821 89.6477 88.1625 89.7198C88.9353 89.8663 89.7624 89.6062 90.3165 88.9612L106.646 69.8825L106.677 69.8273L109.712 66.284C113.03 62.4055 118.858 61.957 122.704 65.292C126.548 68.6216 126.98 74.4795 123.669 78.357L104.254 101.035C103.433 101.996 103.538 103.442 104.49 104.268C104.805 104.539 105.172 104.708 105.55 104.779C106.325 104.926 107.152 104.666 107.704 104.021L152.228 52.0069C155.549 48.1288 161.381 47.6861 165.225 51.0158C169.069 54.3479 169.497 60.2127 166.179 64.0888L117.361 121.121C116.757 121.825 116.637 122.822 117.051 123.648C117.465 124.476 118.331 124.973 119.251 124.899L139.577 123.349C140.397 123.286 141.201 123.334 141.977 123.481C145.973 124.239 149.128 127.621 149.441 131.89C149.622 134.36 148.835 136.756 147.226 138.635C145.621 140.512 143.382 141.651 140.927 141.836C140.815 141.846 140.702 141.865 140.594 141.888ZM7.48974 133.31L17.4131 121.719L63.2855 161.45L53.3622 173.04L7.48974 133.31Z" stroke="#B7CDDE" stroke-width="4" mask="url(#path-1-outside-1_252_3501)"/>
</svg>
