<svg width="16" height="17" viewBox="0 0 16 17" fill="none" xmlns="http://www.w3.org/2000/svg">
<path fill-rule="evenodd" clip-rule="evenodd" d="M6.66665 3.16659C4.45751 3.16659 2.66665 4.95745 2.66665 7.16659C2.66665 9.37572 4.45751 11.1666 6.66665 11.1666C8.87579 11.1666 10.6666 9.37572 10.6666 7.16659C10.6666 4.95745 8.87579 3.16659 6.66665 3.16659ZM1.33331 7.16659C1.33331 4.22107 3.72113 1.83325 6.66665 1.83325C9.61217 1.83325 12 4.22107 12 7.16659C12 8.39906 11.5819 9.53389 10.8799 10.437L14.4714 14.0285C14.7317 14.2889 14.7317 14.711 14.4714 14.9713C14.211 15.2317 13.7889 15.2317 13.5286 14.9713L9.93708 11.3798C9.03395 12.0819 7.89912 12.4999 6.66665 12.4999C3.72113 12.4999 1.33331 10.1121 1.33331 7.16659Z" fill="#667988"/>
</svg>
