<svg width="25" height="25" viewBox="0 0 25 25" fill="none" xmlns="http://www.w3.org/2000/svg">
<rect width="23.5198" height="24" transform="translate(0.5 0.301758)" fill="#33424C"/>
<path d="M12.4998 10.1199V14.7672H18.958C18.6744 16.2617 17.8234 17.5272 16.547 18.3781L20.4416 21.4C22.7107 19.3055 24.0198 16.2291 24.0198 12.5746C24.0198 11.7237 23.9434 10.9054 23.8015 10.12L12.4998 10.1199Z" fill="#4285F4"/>
<path d="M5.77468 14.5858L4.89631 15.2582L1.78717 17.6799C3.76171 21.5963 7.80868 24.3018 12.4996 24.3018C15.7395 24.3018 18.4558 23.2327 20.4413 21.4L16.5468 18.3781C15.4777 19.0981 14.114 19.5345 12.4996 19.5345C9.37957 19.5345 6.72874 17.4291 5.77958 14.5927L5.77468 14.5858Z" fill="#34A853"/>
<path d="M1.78718 6.92358C0.969042 8.53806 0.5 10.3599 0.5 12.3017C0.5 14.2435 0.969042 16.0653 1.78718 17.6798C1.78718 17.6906 5.77997 14.5816 5.77997 14.5816C5.53998 13.8616 5.39812 13.098 5.39812 12.3016C5.39812 11.5051 5.53998 10.7415 5.77997 10.0215L1.78718 6.92358Z" fill="#FBBC05"/>
<path d="M12.4998 5.07994C14.2671 5.07994 15.838 5.69083 17.0925 6.86903L20.5289 3.43271C18.4452 1.49092 15.7398 0.301758 12.4998 0.301758C7.80893 0.301758 3.76171 2.9963 1.78717 6.92358L5.77984 10.0218C6.72888 7.18538 9.37982 5.07994 12.4998 5.07994Z" fill="#EA4335"/>
</svg>
